<svg width="34" height="59" viewBox="0 0 34 59" fill="none" xmlns="http://www.w3.org/2000/svg">
<path fill-rule="evenodd" clip-rule="evenodd" d="M15.3014 57.7816C15.62 58.1003 16.058 58.2735 16.5188 58.2633C16.9797 58.253 17.4258 58.0601 17.7589 57.727L32.8316 42.6544C33.1647 42.3212 33.3576 41.8752 33.3678 41.4143C33.3781 40.9534 33.2048 40.5155 32.8862 40.1969C32.5675 39.8782 32.1296 39.705 31.6687 39.7152C31.2079 39.7254 30.7618 39.9183 30.4287 40.2515L18.3881 52.292L19.4988 2.42195C19.5091 1.9605 19.3356 1.52203 19.0165 1.20298C18.6975 0.883935 18.259 0.710455 17.7976 0.720709C17.3361 0.730964 16.8895 0.924112 16.5559 1.25766C16.2224 1.59121 16.0292 2.03783 16.019 2.49928L14.9132 52.3692L3.39619 40.8522C3.07755 40.5336 2.63962 40.3603 2.17875 40.3705C1.71788 40.3808 1.27182 40.5737 0.938692 40.9068C0.605565 41.2399 0.412666 41.686 0.402425 42.1469C0.392183 42.6077 0.565438 43.0457 0.88408 43.3643L15.3014 57.7816Z" fill="white"/>
</svg>
