<svg width="44" height="41" viewBox="0 0 44 41" fill="none" xmlns="http://www.w3.org/2000/svg">
<path fill-rule="evenodd" clip-rule="evenodd" d="M0.841125 39.1827C0.841125 39.6333 1.02827 40.0655 1.3614 40.3841C1.69453 40.7028 2.14634 40.8818 2.61745 40.8818H23.9334C24.4045 40.8818 24.8563 40.7028 25.1895 40.3841C25.5226 40.0655 25.7097 39.6333 25.7097 39.1827C25.7097 38.732 25.5226 38.2999 25.1895 37.9812C24.8563 37.6626 24.4045 37.4836 23.9334 37.4836H6.90551L42.9543 3.00549C43.2879 2.68645 43.4753 2.25373 43.4753 1.80253C43.4753 1.35133 43.2879 0.918615 42.9543 0.59957C42.6208 0.280525 42.1684 0.101288 41.6967 0.101288C41.225 0.101288 40.7726 0.280525 40.4391 0.59957L4.39378 35.0811L4.39378 18.7935C4.39378 18.3429 4.20664 17.9107 3.87351 17.5921C3.54038 17.2734 3.08857 17.0944 2.61745 17.0944C2.14634 17.0944 1.69453 17.2734 1.3614 17.5921C1.02827 17.9107 0.841125 18.3429 0.841125 18.7935L0.841125 39.1827Z" fill="white"/>
</svg>
